<?xml version="1.0" encoding="utf-8"?>
<!-- Generator: Adobe Illustrator 25.0.0, SVG Export Plug-In . SVG Version: 6.00 Build 0)  -->
<!DOCTYPE svg PUBLIC "-//W3C//DTD SVG 1.1//EN" "http://www.w3.org/Graphics/SVG/1.1/DTD/svg11.dtd" [
	<!ENTITY ns_extend "http://ns.adobe.com/Extensibility/1.0/">
	<!ENTITY ns_ai "http://ns.adobe.com/AdobeIllustrator/10.0/">
	<!ENTITY ns_graphs "http://ns.adobe.com/Graphs/1.0/">
	<!ENTITY ns_vars "http://ns.adobe.com/Variables/1.0/">
	<!ENTITY ns_imrep "http://ns.adobe.com/ImageReplacement/1.0/">
	<!ENTITY ns_sfw "http://ns.adobe.com/SaveForWeb/1.0/">
	<!ENTITY ns_custom "http://ns.adobe.com/GenericCustomNamespace/1.0/">
	<!ENTITY ns_adobe_xpath "http://ns.adobe.com/XPath/1.0/">
]>
<svg version="1.1" id="Livello_1" xmlns:x="&ns_extend;" xmlns:i="&ns_ai;" xmlns:graph="&ns_graphs;"
	 xmlns="http://www.w3.org/2000/svg" xmlns:xlink="http://www.w3.org/1999/xlink" x="0px" y="0px" viewBox="0 0 163.1 120.6"
	 style="enable-background:new 0 0 163.1 120.6;" xml:space="preserve">
<metadata>
	<sfw  xmlns="&ns_sfw;">
		<slices></slices>
		<sliceSourceBounds  bottomLeftOrigin="true" height="120.6" width="163.1" x="0" y="7.3"></sliceSourceBounds>
	</sfw>
</metadata>
<g>
	<g>
		<g>
			<path d="M73.8,20.1c0.7-1-0.7,0.8,0.1-0.2c0.2-0.2,0.4-0.5,0.6-0.7c0.4-0.5,0.9-1,1.4-1.5c0.9-0.9,1.9-2,3-2.7
				c-1.1,0.7,0.6-0.4,0.8-0.5c0.5-0.3,1-0.7,1.6-1s1.2-0.7,1.8-1c0.3-0.1,0.6-0.3,0.8-0.4c0.1-0.1,1.5-0.6,0.8-0.4
				c-0.7,0.3,0.4-0.2,0.5-0.2c0.4-0.1,0.7-0.3,1.1-0.4c0.6-0.2,1.2-0.4,1.8-0.5c0.6-0.2,1.2-0.3,1.9-0.4c0.4-0.1,0.8-0.1,1.1-0.2
				c1-0.2-0.9,0.1,0.2,0c1.4-0.1,2.7-0.2,4.1-0.2c0.6,0,1.3,0,1.9,0.1c0.2,0,0.5,0,0.7,0.1c0.2,0,0.5,0,0.7,0.1
				c-0.7-0.1-0.8-0.1-0.3,0c2.3,0.4,4.6,1,6.8,1.9c1.1,0.4-1-0.5,0.1,0c0.2,0.1,0.5,0.2,0.7,0.4c0.5,0.3,1.1,0.5,1.6,0.8
				c1,0.6,2.1,1.2,3,1.9c0.1,0.1,1,0.7,0.3,0.2s0.2,0.2,0.3,0.2c0.4,0.3,0.8,0.7,1.2,1.1c0.9,0.8,1.8,1.7,2.6,2.7
				c0.2,0.2,0.4,0.4,0.5,0.6c0.1,0.1,0.1,0.2,0.2,0.3c0.3,0.4,0.3,0.3-0.2-0.2c0.4,0.2,0.7,1,0.9,1.3c0.7,1,1.3,2,1.8,3.1
				c0.2,0.4,0.9,1.3,0.9,1.8c-0.1-0.2-0.2-0.4-0.2-0.6c0.1,0.2,0.2,0.4,0.2,0.6c0.1,0.3,0.2,0.6,0.3,0.9c0.4,1.3,0.8,2.6,1.1,3.9
				c0.1,0.6,0.5,1.4,0.4,2c0-0.2-0.1-0.4-0.1-0.6c0,0.2,0.1,0.5,0.1,0.7c0,0.3,0.1,0.7,0.1,1c0.1,1.8,0.1,3.7-0.1,5.5
				c-0.2,1.9,1.6,4.4,3.6,4.7c2.4,0.4,4.7,0.9,7,1.8c0.5,0.2,1.1,0.4,1.6,0.6c1.1,0.4-1-0.5,0.1,0c0.2,0.1,0.4,0.2,0.6,0.3
				c1.1,0.5,2.2,1.1,3.3,1.7c1,0.6,1.9,1.2,2.8,1.8c0.2,0.2,0.6,0.4,0.8,0.6c-0.1-0.1-0.9-0.7-0.2-0.1c0.5,0.4,1,0.8,1.5,1.3
				c0.8,0.7,1.6,1.5,2.4,2.3c0.4,0.4,0.8,0.8,1.1,1.2c0.2,0.3,0.4,0.5,0.6,0.8c0.2,0.2,0.9,1,0.1,0.1c1.5,1.7,2.7,3.9,3.7,6
				c0.3,0.5,0.5,1,0.7,1.5c0.1,0.2,0.2,0.4,0.3,0.6c-0.3-1.2-0.1-0.2,0,0.1c0.5,1.2,0.9,2.4,1.2,3.6c0.3,1.1,0.6,2.2,0.8,3.4
				c0.1,0.4,0.2,2.2,0.1,0.8c0,0.7,0.2,1.4,0.2,2.1c0.2,2.5,0.1,4.9-0.2,7.4c0,0.5,0.2,0.5,0-0.3c0,0.3-0.1,0.7-0.2,1
				c-0.1,0.6-0.2,1.1-0.3,1.7c-0.3,1.2-0.6,2.3-0.9,3.4c-0.2,0.5-0.3,1.1-0.5,1.6c-0.1,0.3-0.2,0.5-0.3,0.8c0,0.1-0.5,1.1-0.1,0.3
				c0.3-0.8-0.1,0.2-0.2,0.3c-0.1,0.3-0.2,0.5-0.4,0.8c-0.3,0.5-0.5,1.1-0.8,1.6c-0.5,1-1.1,2-1.8,3c-0.3,0.5-0.6,0.9-0.9,1.3
				c-0.1,0.2-0.3,0.5-0.5,0.7c0.9-0.8,0.2-0.3,0,0c-1.4,1.8-3.1,3.4-4.8,4.9c-0.4,0.3-0.8,0.9-1.3,1c1-0.4,0.3-0.2-0.1,0
				c-0.2,0.1-0.4,0.3-0.5,0.4c-1,0.7-2,1.3-3,1.9c-1,0.5-1.9,1.1-2.9,1.5c-0.2,0.1-0.6,0.4-0.9,0.4c0.1,0,1.1-0.4,0.2-0.1
				c-0.6,0.2-1.2,0.5-1.9,0.7c-1.1,0.4-2.1,0.7-3.2,0.9c-0.5,0.1-1.1,0.3-1.7,0.4c-0.5,0.1-1.5,0.4-2,0.3c1,0.1,0.6-0.1,0.1,0
				c-0.3,0-0.6,0.1-0.9,0.1c-0.6,0.1-1.2,0.1-1.7,0.1c-1.4,0.1-2.7,0.1-4.1,0c-0.7,0-1.6,0-2.3-0.2c0.1,0,1.1,0.2,0.2,0
				c-0.4-0.1-0.9-0.1-1.3-0.2c-1.4-0.3-2.8-0.6-4.2-1c-0.7-0.2-1.4-0.5-2.1-0.7c-0.3-0.1-0.7-0.3-1-0.4c-1-0.4,0.8,0.4-0.2-0.1
				c-1.3-0.6-2.6-1.3-3.9-2c-1.1-0.7-2.2-1.4-3.3-2.2c-1-0.7,0.8,0.7-0.2-0.1c-0.3-0.2-0.6-0.5-0.8-0.7c-0.6-0.5-1.1-1-1.6-1.5
				c-1-1-2-2.1-3-3.2c-0.2-0.2-0.3-0.4-0.5-0.6c-0.3-0.4-0.3-0.4,0.1,0.1c-0.1-0.2-0.3-0.4-0.4-0.6c-0.4-0.6-0.8-1.2-1.2-1.8
				c-1.6-2.5-5.5-3.5-7.7-1c-1.2,1.3-2.4,2.6-3.7,3.8c-0.6,0.6-1.2,1.1-1.9,1.6c-0.2,0.2-1.3,1-0.3,0.3c-0.4,0.3-0.7,0.5-1.1,0.8
				c-1.4,1-2.9,2-4.5,2.9c-0.7,0.4-1.5,0.8-2.2,1.2c-0.4,0.2-0.8,0.4-1.2,0.6c-0.4,0.2-1.3,0.6-0.4,0.2c-3.4,1.4-6.9,2.4-10.5,3
				c-0.5,0.1-1.1,0.3-0.3,0.1c-0.4,0.1-0.9,0.1-1.4,0.2c-0.9,0.1-1.9,0.2-2.8,0.2c-1.7,0.1-3.4,0-5.2-0.1c-0.7-0.1-1.5-0.1-2.2-0.2
				c-1-0.1,0.9,0.1-0.1,0c-0.5-0.1-0.9-0.1-1.4-0.2c-1.6-0.3-3.1-0.6-4.6-1.1c-1.4-0.4-2.9-0.9-4.3-1.4c-0.2-0.1-0.4-0.2-0.6-0.2
				c-0.5-0.2,0.4,0.2,0.4,0.2c-0.3-0.1-0.6-0.3-0.9-0.4c-0.8-0.3-1.5-0.7-2.2-1.1c-1.3-0.7-2.6-1.4-3.9-2.2
				c-0.6-0.4-1.3-0.8-1.9-1.3c-0.3-0.2-0.5-0.4-0.8-0.6c-0.2-0.2-0.7-0.4,0.2,0.2c-0.2-0.1-0.3-0.3-0.5-0.4c-2.3-1.9-4.5-4-6.5-6.3
				c-0.4-0.5-1-1.1-1.3-1.7c0.1,0.1,0.7,0.9,0.2,0.2c-0.1-0.1-0.2-0.3-0.3-0.4c-0.3-0.4-0.5-0.7-0.8-1.1c-0.8-1.2-1.6-2.5-2.3-3.8
				c-0.8-1.4-1.4-2.7-2.1-4.1c-0.4-0.8,0.3,0.8,0-0.1c-0.1-0.4-0.3-0.7-0.4-1.1c-0.3-0.7-0.5-1.5-0.8-2.2c-0.5-1.5-0.9-3-1.2-4.6
				c-0.2-0.7-0.3-1.4-0.4-2.2c0-0.2-0.2-1.5-0.1-0.7c0.1,0.7-0.1-0.5-0.1-0.7c-0.3-3.2-0.3-6.5,0-9.8c0-0.3,0.1-0.7,0.1-1
				c0,0.1-0.2,1.2,0,0.3c0-0.2,0.1-0.3,0.1-0.5c0.1-0.8,0.3-1.6,0.4-2.3c0.3-1.5,0.7-3.1,1.2-4.6c0.2-0.7,0.5-1.4,0.7-2.1
				c0.1-0.3,0.2-0.6,0.4-0.9c0-0.1,0.1-0.5,0.2-0.6c-0.2,0.2-0.4,0.9-0.1,0.2c0.6-1.4,1.3-2.8,2.1-4.1c0.7-1.3,1.5-2.6,2.3-3.8
				c0.2-0.3,0.4-0.6,0.7-0.9c0.1-0.2,0.8-1.2,0.4-0.6c-0.4,0.6,0.2-0.3,0.3-0.4c0.3-0.3,0.6-0.7,0.8-1c1.9-2.3,4.1-4.4,6.5-6.3
				c0.1-0.1,0.3-0.2,0.4-0.3c0.5-0.4-0.7,0.5-0.2,0.2c0.3-0.2,0.5-0.4,0.8-0.6c0.7-0.5,1.3-0.9,2-1.4c1.2-0.8,2.5-1.5,3.9-2.2
				c0.6-0.3,1.3-0.6,1.9-0.9c0.4-0.2,0.7-0.3,1.1-0.5c0.5-0.2-0.4,0.2-0.4,0.2c0.2-0.2,0.6-0.2,0.8-0.3c1.4-0.5,2.8-1,4.3-1.4
				s3.1-0.8,4.6-1.1c0.3-0.1,0.7-0.1,1-0.2c0.2,0,0.5-0.1,0.7-0.1c0,0-1,0.1-0.4,0.1c0.8-0.1,1.6-0.2,2.4-0.2
				c1.8-0.1,3.6-0.1,5.4-0.1c1,0,2,0.1,3,0.2c0.3,0,0.6,0.1,0.9,0.1c-0.1,0-0.7-0.1-0.2,0s1,0.2,1.6,0.3c2.1,0.4,4.1,0.9,6.1,1.6
				c2,0.6,4.6-0.4,5.5-2.2C71.9,22.9,72.8,21.5,73.8,20.1c1.5-2.1,0.4-5.5-1.8-6.7c-2.5-1.3-5.1-0.5-6.7,1.8c-1,1.4-1.9,2.8-2.6,4.3
				c1.8-0.7,3.7-1.5,5.5-2.2C53.6,12.5,37,14.6,24,23C12.4,30.5,3.9,42.5,1.1,56c-2.9,13.9-0.1,28.8,8,40.5
				c7.9,11.3,20.1,19.5,33.8,21.8c16,2.7,32.3-1.9,44.4-12.8c1.4-1.2,2.6-2.5,3.8-3.9c-2.6-0.3-5.1-0.7-7.7-1
				c6.5,10,16.9,17.3,28.7,19.3c11.1,1.9,22.8-0.3,32.1-6.8c8.9-6.2,15.5-15.6,17.9-26.2c2.4-11,0.6-22.7-5.4-32.3
				c-6.5-10.4-17.5-18-29.7-19.9c1.2,1.6,2.4,3.1,3.6,4.7c1.2-11.8-3.9-24-13.2-31.4c-9.6-7.6-22.7-10.2-34.5-6
				c-7.1,2.6-13,7.1-17.5,13.2c-1.5,2.1-0.4,5.5,1.8,6.7C69.7,23.2,72.2,22.3,73.8,20.1z"/>
		</g>
	</g>
</g>
</svg>
