<?xml version="1.0" encoding="utf-8"?>
<!-- Generator: Adobe Illustrator 25.0.0, SVG Export Plug-In . SVG Version: 6.00 Build 0)  -->
<!DOCTYPE svg PUBLIC "-//W3C//DTD SVG 1.1//EN" "http://www.w3.org/Graphics/SVG/1.1/DTD/svg11.dtd" [
	<!ENTITY ns_extend "http://ns.adobe.com/Extensibility/1.0/">
	<!ENTITY ns_ai "http://ns.adobe.com/AdobeIllustrator/10.0/">
	<!ENTITY ns_graphs "http://ns.adobe.com/Graphs/1.0/">
	<!ENTITY ns_vars "http://ns.adobe.com/Variables/1.0/">
	<!ENTITY ns_imrep "http://ns.adobe.com/ImageReplacement/1.0/">
	<!ENTITY ns_sfw "http://ns.adobe.com/SaveForWeb/1.0/">
	<!ENTITY ns_custom "http://ns.adobe.com/GenericCustomNamespace/1.0/">
	<!ENTITY ns_adobe_xpath "http://ns.adobe.com/XPath/1.0/">
]>
<svg version="1.1" id="Layer_1" xmlns:x="&ns_extend;" xmlns:i="&ns_ai;" xmlns:graph="&ns_graphs;"
	 xmlns="http://www.w3.org/2000/svg" xmlns:xlink="http://www.w3.org/1999/xlink" x="0px" y="0px" viewBox="0 0 132.6 132.6"
	 style="enable-background:new 0 0 132.6 132.6;" xml:space="preserve">
<style type="text/css">
	.st0{fill:#990000;stroke:#707070;stroke-width:2;stroke-miterlimit:10;}
	.st1{fill:#E1E1E1;}
</style>
<metadata>
	<sfw  xmlns="&ns_sfw;">
		<slices></slices>
		<sliceSourceBounds  bottomLeftOrigin="true" height="132.6" width="132.6" x="157.1" y="210.1"></sliceSourceBounds>
	</sfw>
</metadata>
<circle class="st0" cx="66.3" cy="66.3" r="65.3"/>
<path class="st1" d="M88.7,41.4c-4.6-7.9-12.7-12.8-21.8-12.9c-0.4,0-0.8,0-1.2,0c-9.1,0.2-17.2,5-21.8,12.9
	c-4.7,8.1-4.8,17.8-0.3,26l18.8,34.3c0,0,0,0,0,0c0.8,1.4,2.3,2.3,4,2.3c1.7,0,3.1-0.9,4-2.3c0,0,0,0,0,0L89,67.4
	C93.5,59.2,93.4,49.5,88.7,41.4L88.7,41.4z M66.3,62.7c-5.9,0-10.6-4.8-10.6-10.6s4.8-10.6,10.6-10.6s10.6,4.8,10.6,10.6
	S72.1,62.7,66.3,62.7z"/>
</svg>
